<svg id="visual" viewBox="0 0 900 450" width="900" height="450" xmlns="http://www.w3.org/2000/svg" xmlns:xlink="http://www.w3.org/1999/xlink" version="1.1"><rect x="0" y="0" width="900" height="450" fill="#111"></rect><path d="M0 306L21.5 308.2C43 310.3 86 314.7 128.8 310C171.7 305.3 214.3 291.7 257.2 282.5C300 273.3 343 268.7 385.8 274.7C428.7 280.7 471.3 297.3 514.2 302.8C557 308.3 600 302.7 642.8 296.3C685.7 290 728.3 283 771.2 288.3C814 293.7 857 311.3 878.5 320.2L900 329L900 451L878.5 451C857 451 814 451 771.2 451C728.3 451 685.7 451 642.8 451C600 451 557 451 514.2 451C471.3 451 428.7 451 385.8 451C343 451 300 451 257.2 451C214.3 451 171.7 451 128.8 451C86 451 43 451 21.5 451L0 451Z" fill="#002c6e"></path><path d="M0 357L21.5 350.5C43 344 86 331 128.8 325.3C171.7 319.7 214.3 321.3 257.2 327.5C300 333.7 343 344.3 385.8 347C428.7 349.7 471.3 344.3 514.2 342.8C557 341.3 600 343.7 642.8 340.2C685.7 336.7 728.3 327.3 771.2 323.2C814 319 857 320 878.5 320.5L900 321L900 451L878.5 451C857 451 814 451 771.2 451C728.3 451 685.7 451 642.8 451C600 451 557 451 514.2 451C471.3 451 428.7 451 385.8 451C343 451 300 451 257.2 451C214.3 451 171.7 451 128.8 451C86 451 43 451 21.5 451L0 451Z" fill="#003a90"></path><path d="M0 361L21.5 363.3C43 365.7 86 370.3 128.8 373.3C171.7 376.3 214.3 377.7 257.2 369.7C300 361.7 343 344.3 385.8 339.7C428.7 335 471.3 343 514.2 344.3C557 345.7 600 340.3 642.8 344.8C685.7 349.3 728.3 363.7 771.2 371.3C814 379 857 380 878.5 380.5L900 381L900 451L878.5 451C857 451 814 451 771.2 451C728.3 451 685.7 451 642.8 451C600 451 557 451 514.2 451C471.3 451 428.7 451 385.8 451C343 451 300 451 257.2 451C214.3 451 171.7 451 128.8 451C86 451 43 451 21.5 451L0 451Z" fill="#0048b4"></path><path d="M0 392L21.5 391.3C43 390.7 86 389.3 128.8 389.3C171.7 389.3 214.3 390.7 257.2 386.2C300 381.7 343 371.3 385.8 372.3C428.7 373.3 471.3 385.7 514.2 389.8C557 394 600 390 642.8 388.8C685.7 387.7 728.3 389.3 771.2 392.8C814 396.3 857 401.7 878.5 404.3L900 407L900 451L878.5 451C857 451 814 451 771.2 451C728.3 451 685.7 451 642.8 451C600 451 557 451 514.2 451C471.3 451 428.7 451 385.8 451C343 451 300 451 257.2 451C214.3 451 171.7 451 128.8 451C86 451 43 451 21.5 451L0 451Z" fill="#0057d9"></path><path d="M0 419L21.5 415.2C43 411.3 86 403.7 128.8 399.3C171.7 395 214.3 394 257.2 394.8C300 395.7 343 398.3 385.8 401.2C428.7 404 471.3 407 514.2 411.5C557 416 600 422 642.8 421C685.7 420 728.3 412 771.2 407C814 402 857 400 878.5 399L900 398L900 451L878.5 451C857 451 814 451 771.2 451C728.3 451 685.7 451 642.8 451C600 451 557 451 514.2 451C471.3 451 428.7 451 385.8 451C343 451 300 451 257.2 451C214.3 451 171.7 451 128.8 451C86 451 43 451 21.5 451L0 451Z" fill="#0066ff"></path></svg>